#format: frame checksums
#version: 2
#hash: MD5
#tb 0: 1/25
#media_type 0: video
#codec_id 0: rawvideo
#dimensions 0: 320x240
#sar 0: 1/1
#stream#, dts,        pts, duration,     size, hash
0,          0,          0,        1,   115200, 7e20f8729b6b53dc11791927bf4a5aec
0,          1,          1,        1,   115200, 4e5dc2b806e394cd666c968f736fecd0
0,          2,          2,        1,   115200, 7a3c7473d44c5f60c07655f6fc0c2ac3
0,          3,          3,        1,   115200, 038254422a603a3270c09cdcd149707b
0,          4,          4,        1,   115200, 7553b6b4547cb23ef8f0392ed5a5d4b0
0,          5,          5,        1,   115200, 6d017ede7f446124af7308667cb0dc41
0,          6,          6,        1,   115200, 77752f0288ae64f857732b8e62e47457
0,          7,          7,        1,   115200, d656833951af99330625f7c6de7685c4
0,          8,          8,        1,   115200, 14338b833e431e566ac98da841600bfe
0,          9,          9,        1,   115200, 07ea95d1659f3c4424a470a546d0df6e
0,         10,         10,        1,   115200, fd05b8cc83072f813e89d394d1f6efc6
0,         11,         11,        1,   115200, 750b82ca5c7e901545e7b1aa69692426
0,         12,         12,        1,   115200, 7347679ab09bc936047368b8caebcaff
0,         13,         13,        1,   115200, 63a23fdd57ac8462b9ffbcb12ab717b3
0,         14,         14,        1,   115200, 705257a1c99693db233e2a3ee027adcf
0,         15,         15,        1,   115200, df861a2ec7a4ef70e82b1c28025e5a48
0,         16,         16,        1,   115200, 2a8b403c077b6b43aa71eaf7d1537713
0,         17,         17,        1,   115200, 973b5cd3ce473e3970dfa96045553172
0,         18,         18,        1,   115200, fc612c0afeae3b6576b5ee2f3f119832
0,         19,         19,        1,   115200, 97074fe5a0b6e7e8470729654092e56c
0,         20,         20,        1,   115200, 8cf9337201065335b3aa4da21dc9b37a
0,         21,         21,        1,   115200, 93ff3589294cc0673af3daee1e7fe42a
0,         22,         22,        1,   115200, c0b6fd870a022f374f9d6c697e8e293d
0,         23,         23,        1,   115200, bc4638ff7036b323c39a948a6407695d
